<svg width="220" height="220" xmlns="http://www.w3.org/2000/svg">
  <!-- Background -->
  <rect width="220" height="220" fill="#ffffff"/>

  <!-- Main box -->
  <rect x="10" y="40" width="200" height="170" fill="#f3e5f5" stroke="#6f42c1" stroke-width="3" rx="8"/>

  <!-- Title -->
  <text x="110" y="30" text-anchor="middle" fill="#6f42c1" font-family="Arial, sans-serif" font-size="18" font-weight="bold">Step 4</text>
  <text x="110" y="75" text-anchor="middle" fill="#6f42c1" font-family="Arial, sans-serif" font-size="20" font-weight="bold">Ready to Fab</text>

  <!-- Chip die representation -->
  <rect x="50" y="95" width="120" height="95" fill="#ffffff" stroke="#6c757d" stroke-width="2" rx="2"/>

  <!-- Die background -->
  <rect x="55" y="100" width="110" height="85" fill="#f8f9fa"/>

  <!-- Core area (darker) -->
  <rect x="70" y="115" width="80" height="55" fill="#6f42c1" opacity="0.15"/>

  <!-- Simulated cell placement areas -->
  <rect x="73" y="118" width="18" height="12" fill="#6f42c1" opacity="0.6"/>
  <rect x="94" y="118" width="15" height="12" fill="#6f42c1" opacity="0.6"/>
  <rect x="112" y="118" width="20" height="12" fill="#6f42c1" opacity="0.6"/>
  <rect x="135" y="118" width="12" height="12" fill="#6f42c1" opacity="0.6"/>

  <rect x="73" y="133" width="22" height="14" fill="#6f42c1" opacity="0.6"/>
  <rect x="98" y="133" width="17" height="14" fill="#6f42c1" opacity="0.6"/>
  <rect x="118" y="133" width="14" height="14" fill="#6f42c1" opacity="0.6"/>
  <rect x="135" y="133" width="12" height="14" fill="#6f42c1" opacity="0.6"/>

  <rect x="73" y="150" width="16" height="16" fill="#6f42c1" opacity="0.6"/>
  <rect x="92" y="150" width="18" height="16" fill="#6f42c1" opacity="0.6"/>
  <rect x="113" y="150" width="21" height="16" fill="#6f42c1" opacity="0.6"/>
  <rect x="137" y="150" width="10" height="16" fill="#6f42c1" opacity="0.6"/>

  <!-- IO pads around perimeter -->
  <!-- Top pads -->
  <rect x="60" y="102" width="8" height="5" fill="#fd7e14"/>
  <rect x="75" y="102" width="8" height="5" fill="#fd7e14"/>
  <rect x="90" y="102" width="8" height="5" fill="#fd7e14"/>
  <rect x="105" y="102" width="8" height="5" fill="#fd7e14"/>
  <rect x="120" y="102" width="8" height="5" fill="#fd7e14"/>
  <rect x="135" y="102" width="8" height="5" fill="#fd7e14"/>
  <rect x="150" y="102" width="8" height="5" fill="#fd7e14"/>

  <!-- Bottom pads -->
  <rect x="60" y="178" width="8" height="5" fill="#fd7e14"/>
  <rect x="75" y="178" width="8" height="5" fill="#fd7e14"/>
  <rect x="90" y="178" width="8" height="5" fill="#fd7e14"/>
  <rect x="105" y="178" width="8" height="5" fill="#fd7e14"/>
  <rect x="120" y="178" width="8" height="5" fill="#fd7e14"/>
  <rect x="135" y="178" width="8" height="5" fill="#fd7e14"/>
  <rect x="150" y="178" width="8" height="5" fill="#fd7e14"/>

  <!-- Left pads -->
  <rect x="57" y="112" width="5" height="8" fill="#fd7e14"/>
  <rect x="57" y="127" width="5" height="8" fill="#fd7e14"/>
  <rect x="57" y="142" width="5" height="8" fill="#fd7e14"/>
  <rect x="57" y="157" width="5" height="8" fill="#fd7e14"/>

  <!-- Right pads -->
  <rect x="158" y="112" width="5" height="8" fill="#fd7e14"/>
  <rect x="158" y="127" width="5" height="8" fill="#fd7e14"/>
  <rect x="158" y="142" width="5" height="8" fill="#fd7e14"/>
  <rect x="158" y="157" width="5" height="8" fill="#fd7e14"/>

  <!-- Label -->
  <text x="110" y="203" text-anchor="middle" fill="#495057" font-family="Arial, sans-serif" font-size="12" font-weight="bold">GDS File</text>
</svg>
